<?xml version="1.0" encoding="us-ascii" standalone="no"?><svg xmlns="http://www.w3.org/2000/svg" xmlns:xlink="http://www.w3.org/1999/xlink" contentStyleType="text/css" height="269px" preserveAspectRatio="none" style="width:650px;height:269px;background:#FFFFFF;" version="1.1" viewBox="0 0 650 269" width="650px" zoomAndPan="magnify"><defs/><g><line style="stroke:#181818;stroke-width:0.5;stroke-dasharray:5.0,5.0;" x1="45" x2="45" y1="37.6094" y2="233.3672"/><line style="stroke:#181818;stroke-width:0.5;stroke-dasharray:5.0,5.0;" x1="413.5" x2="413.5" y1="37.6094" y2="233.3672"/><rect fill="#E2E2F0" height="31.6094" rx="2.5" ry="2.5" style="stroke:#181818;stroke-width:0.5;" width="80" x="5" y="5"/><text fill="#000000" font-family="sans-serif" font-size="14" lengthAdjust="spacing" textLength="66" x="12" y="26.5332">Requestor</text><rect fill="#E2E2F0" height="31.6094" rx="2.5" ry="2.5" style="stroke:#181818;stroke-width:0.5;" width="80" x="5" y="232.3672"/><text fill="#000000" font-family="sans-serif" font-size="14" lengthAdjust="spacing" textLength="66" x="12" y="253.9004">Requestor</text><rect fill="#E2E2F0" height="31.6094" rx="2.5" ry="2.5" style="stroke:#181818;stroke-width:0.5;" width="121" x="353.5" y="5"/><text fill="#000000" font-family="sans-serif" font-size="14" lengthAdjust="spacing" textLength="107" x="360.5" y="26.5332">ExecutionSystem</text><rect fill="#E2E2F0" height="31.6094" rx="2.5" ry="2.5" style="stroke:#181818;stroke-width:0.5;" width="121" x="353.5" y="232.3672"/><text fill="#000000" font-family="sans-serif" font-size="14" lengthAdjust="spacing" textLength="107" x="360.5" y="253.9004">ExecutionSystem</text><polygon fill="#181818" points="402,68.9609,412,72.9609,402,76.9609,406,72.9609" style="stroke:#181818;stroke-width:1.0;"/><line style="stroke:#181818;stroke-width:1.0;" x1="45" x2="408" y1="72.9609" y2="72.9609"/><text fill="#000000" font-family="sans-serif" font-size="13" lengthAdjust="spacing" textLength="220" x="52" y="68.1045">SEND - PackTag.Command.CntrlCmd</text><path d="M419,52.6094 L419,78.6094 L538,78.6094 L538,62.6094 L528,52.6094 L419,52.6094 " fill="#FEFFDD" style="stroke:#181818;stroke-width:0.5;"/><path d="M528,52.6094 L528,62.6094 L538,62.6094 L528,52.6094 " fill="#FEFFDD" style="stroke:#181818;stroke-width:0.5;"/><text fill="#000000" font-family="sans-serif" font-size="13" lengthAdjust="spacing" textLength="98" x="425" y="71.1045">Local processing</text><polygon fill="#181818" points="402,105.3125,412,109.3125,402,113.3125,406,109.3125" style="stroke:#181818;stroke-width:1.0;"/><line style="stroke:#181818;stroke-width:1.0;" x1="45" x2="408" y1="109.3125" y2="109.3125"/><text fill="#000000" font-family="sans-serif" font-size="13" lengthAdjust="spacing" textLength="285" x="52" y="104.4561">SEND - PackTag.Command.CmdChangeRequest</text><path d="M419,88.9609 L419,114.9609 L643,114.9609 L643,98.9609 L633,88.9609 L419,88.9609 " fill="#FEFFDD" style="stroke:#181818;stroke-width:0.5;"/><path d="M633,88.9609 L633,98.9609 L643,98.9609 L633,88.9609 " fill="#FEFFDD" style="stroke:#181818;stroke-width:0.5;"/><text fill="#000000" font-family="sans-serif" font-size="13" lengthAdjust="spacing" textLength="203" x="425" y="107.4561">State request verified, else rejected</text><polygon fill="#181818" points="56,141.6641,46,145.6641,56,149.6641,52,145.6641" style="stroke:#181818;stroke-width:1.0;"/><line style="stroke:#181818;stroke-width:1.0;" x1="50" x2="413" y1="145.6641" y2="145.6641"/><text fill="#000000" font-family="sans-serif" font-size="13" lengthAdjust="spacing" textLength="305" x="62" y="140.8076">ACKNOWLEDGE - PackTag.Status.StateRequested</text><path d="M419,125.3125 L419,151.3125 L588,151.3125 L588,135.3125 L578,125.3125 L419,125.3125 " fill="#FEFFDD" style="stroke:#181818;stroke-width:0.5;"/><path d="M578,125.3125 L578,135.3125 L588,135.3125 L578,125.3125 " fill="#FEFFDD" style="stroke:#181818;stroke-width:0.5;"/><text fill="#000000" font-family="sans-serif" font-size="13" lengthAdjust="spacing" textLength="148" x="425" y="143.8076">State Change Processing</text><polygon fill="#181818" points="56,178.0156,46,182.0156,56,186.0156,52,182.0156" style="stroke:#181818;stroke-width:1.0;"/><line style="stroke:#181818;stroke-width:1.0;" x1="50" x2="413" y1="182.0156" y2="182.0156"/><text fill="#000000" font-family="sans-serif" font-size="13" lengthAdjust="spacing" textLength="345" x="62" y="177.1592">ACKNOWLEDGE - PackTag.Status.StateChangeInProcess</text><path d="M419,161.6641 L419,187.6641 L582,187.6641 L582,171.6641 L572,161.6641 L419,161.6641 " fill="#FEFFDD" style="stroke:#181818;stroke-width:0.5;"/><path d="M572,161.6641 L572,171.6641 L582,171.6641 L572,161.6641 " fill="#FEFFDD" style="stroke:#181818;stroke-width:0.5;"/><text fill="#000000" font-family="sans-serif" font-size="13" lengthAdjust="spacing" textLength="142" x="425" y="180.1592">State Request Complete</text><polygon fill="#181818" points="56,211.3672,46,215.3672,56,219.3672,52,215.3672" style="stroke:#181818;stroke-width:1.0;"/><line style="stroke:#181818;stroke-width:1.0;" x1="50" x2="413" y1="215.3672" y2="215.3672"/><text fill="#000000" font-family="sans-serif" font-size="13" lengthAdjust="spacing" textLength="285" x="62" y="210.5107">ACKNOWLEDGE - PackTag.Status.StateCurrent</text><!--SRC=[hT1B2i8m40RWVKyn1x0UG4IGM4GiLQpWEYHZZEQXoLJqzbfRGI4hSHKcoVpV91kyD1Z91yWdKDnGDAIzg- -HqC88wgAQGGvhBavRheRCMykT7397mJ0hC-S98MXreEVbqWjku1oym1YrKrcs-ItTIdRWJc7V_gtKnDkgEu8h1htNA0U09hRRHnI4yfCUvmbwofRLQbSMitdnCK6RtSJNyiPHflXkFbWdt_eZs6KkN1-QOdi3dZzrDaZu3xK90Hqz0000]--></g></svg>