<?xml version="1.0" encoding="us-ascii" standalone="no"?><svg xmlns="http://www.w3.org/2000/svg" xmlns:xlink="http://www.w3.org/1999/xlink" contentStyleType="text/css" height="269px" preserveAspectRatio="none" style="width:793px;height:269px;background:#FFFFFF;" version="1.1" viewBox="0 0 793 269" width="793px" zoomAndPan="magnify"><defs/><g><line style="stroke:#181818;stroke-width:0.5;stroke-dasharray:5.0,5.0;" x1="163" x2="163" y1="37.6094" y2="233.3672"/><line style="stroke:#181818;stroke-width:0.5;stroke-dasharray:5.0,5.0;" x1="555.5" x2="555.5" y1="37.6094" y2="233.3672"/><rect fill="#E2E2F0" height="31.6094" rx="2.5" ry="2.5" style="stroke:#181818;stroke-width:0.5;" width="80" x="123" y="5"/><text fill="#000000" font-family="sans-serif" font-size="14" lengthAdjust="spacing" textLength="66" x="130" y="26.5332">Requestor</text><rect fill="#E2E2F0" height="31.6094" rx="2.5" ry="2.5" style="stroke:#181818;stroke-width:0.5;" width="80" x="123" y="232.3672"/><text fill="#000000" font-family="sans-serif" font-size="14" lengthAdjust="spacing" textLength="66" x="130" y="253.9004">Requestor</text><rect fill="#E2E2F0" height="31.6094" rx="2.5" ry="2.5" style="stroke:#181818;stroke-width:0.5;" width="121" x="495.5" y="5"/><text fill="#000000" font-family="sans-serif" font-size="14" lengthAdjust="spacing" textLength="107" x="502.5" y="26.5332">ExecutionSystem</text><rect fill="#E2E2F0" height="31.6094" rx="2.5" ry="2.5" style="stroke:#181818;stroke-width:0.5;" width="121" x="495.5" y="232.3672"/><text fill="#000000" font-family="sans-serif" font-size="14" lengthAdjust="spacing" textLength="107" x="502.5" y="253.9004">ExecutionSystem</text><polygon fill="#181818" points="544,71.9609,554,75.9609,544,79.9609,548,75.9609" style="stroke:#181818;stroke-width:1.0;"/><line style="stroke:#181818;stroke-width:1.0;" x1="163" x2="550" y1="75.9609" y2="75.9609"/><text fill="#000000" font-family="sans-serif" font-size="13" lengthAdjust="spacing" textLength="221" x="170" y="71.1045">SEND - PackTag.Command.UnitMode</text><path d="M33,52.6094 L33,78.6094 L158,78.6094 L158,62.6094 L148,52.6094 L33,52.6094 " fill="#FEFFDD" style="stroke:#181818;stroke-width:0.5;"/><path d="M148,52.6094 L148,62.6094 L158,62.6094 L148,52.6094 " fill="#FEFFDD" style="stroke:#181818;stroke-width:0.5;"/><text fill="#000000" font-family="sans-serif" font-size="13" lengthAdjust="spacing" textLength="104" x="39" y="71.1045">Input Mode Target</text><path d="M561,52.6094 L561,78.6094 L680,78.6094 L680,62.6094 L670,52.6094 L561,52.6094 " fill="#FEFFDD" style="stroke:#181818;stroke-width:0.5;"/><path d="M670,52.6094 L670,62.6094 L680,62.6094 L670,52.6094 " fill="#FEFFDD" style="stroke:#181818;stroke-width:0.5;"/><text fill="#000000" font-family="sans-serif" font-size="13" lengthAdjust="spacing" textLength="98" x="567" y="71.1045">Local processing</text><polygon fill="#181818" points="544,108.3125,554,112.3125,544,116.3125,548,112.3125" style="stroke:#181818;stroke-width:1.0;"/><line style="stroke:#181818;stroke-width:1.0;" x1="163" x2="550" y1="112.3125" y2="112.3125"/><text fill="#000000" font-family="sans-serif" font-size="13" lengthAdjust="spacing" textLength="313" x="170" y="107.4561">SEND - PackTag.Command.UnitModeChangeRequest</text><path d="M5,88.9609 L5,114.9609 L158,114.9609 L158,98.9609 L148,88.9609 L5,88.9609 " fill="#FEFFDD" style="stroke:#181818;stroke-width:0.5;"/><path d="M148,88.9609 L148,98.9609 L158,98.9609 L148,88.9609 " fill="#FEFFDD" style="stroke:#181818;stroke-width:0.5;"/><text fill="#000000" font-family="sans-serif" font-size="13" lengthAdjust="spacing" textLength="132" x="11" y="107.4561">Request Mode Change</text><path d="M561,88.9609 L561,114.9609 L786,114.9609 L786,98.9609 L776,88.9609 L561,88.9609 " fill="#FEFFDD" style="stroke:#181818;stroke-width:0.5;"/><path d="M776,88.9609 L776,98.9609 L786,98.9609 L776,88.9609 " fill="#FEFFDD" style="stroke:#181818;stroke-width:0.5;"/><text fill="#000000" font-family="sans-serif" font-size="13" lengthAdjust="spacing" textLength="204" x="567" y="107.4561">Mode request verified, else rejected</text><polygon fill="#181818" points="174,141.6641,164,145.6641,174,149.6641,170,145.6641" style="stroke:#181818;stroke-width:1.0;"/><line style="stroke:#181818;stroke-width:1.0;" x1="168" x2="555" y1="145.6641" y2="145.6641"/><text fill="#000000" font-family="sans-serif" font-size="13" lengthAdjust="spacing" textLength="329" x="180" y="140.8076">ACKNOWLEDGE - PackTag.Status.UnitModeRequested</text><path d="M561,125.3125 L561,151.3125 L731,151.3125 L731,135.3125 L721,125.3125 L561,125.3125 " fill="#FEFFDD" style="stroke:#181818;stroke-width:0.5;"/><path d="M721,125.3125 L721,135.3125 L731,135.3125 L721,125.3125 " fill="#FEFFDD" style="stroke:#181818;stroke-width:0.5;"/><text fill="#000000" font-family="sans-serif" font-size="13" lengthAdjust="spacing" textLength="149" x="567" y="143.8076">Mode Change Processing</text><polygon fill="#181818" points="174,178.0156,164,182.0156,174,186.0156,170,182.0156" style="stroke:#181818;stroke-width:1.0;"/><line style="stroke:#181818;stroke-width:1.0;" x1="168" x2="555" y1="182.0156" y2="182.0156"/><text fill="#000000" font-family="sans-serif" font-size="13" lengthAdjust="spacing" textLength="369" x="180" y="177.1592">ACKNOWLEDGE - PackTag.Status.UnitModeChangeInProcess</text><path d="M561,161.6641 L561,187.6641 L725,187.6641 L725,171.6641 L715,161.6641 L561,161.6641 " fill="#FEFFDD" style="stroke:#181818;stroke-width:0.5;"/><path d="M715,161.6641 L715,171.6641 L725,171.6641 L715,161.6641 " fill="#FEFFDD" style="stroke:#181818;stroke-width:0.5;"/><text fill="#000000" font-family="sans-serif" font-size="13" lengthAdjust="spacing" textLength="143" x="567" y="180.1592">Mode Request Complete</text><polygon fill="#181818" points="174,211.3672,164,215.3672,174,219.3672,170,215.3672" style="stroke:#181818;stroke-width:1.0;"/><line style="stroke:#181818;stroke-width:1.0;" x1="168" x2="555" y1="215.3672" y2="215.3672"/><text fill="#000000" font-family="sans-serif" font-size="13" lengthAdjust="spacing" textLength="309" x="180" y="210.5107">ACKNOWLEDGE - PackTag.Status.UnitModeCurrent</text><!--SRC=[hP1DJiCm58JtESKx0Ea14Ag4qWXLz4zD4MlBcRfk4plOpuZUlWasg1LP0TkPqSodsU8jmBDrb4-f_80ChAsfpfxHqZrLvMf6EMs4FEs4cXIsROMf9oz6yzBMo8nbK8CzzzcvwGBJ8DDEE0MEhjFgCDWBAqL3dRCItckZicpxf-tY88n2whW1ILf4YR5Rb4_3fTGxdDvhr7U4nW_o4P9HN-Czv2DuZyNpQlswA6TFvHLbnOA3_uPC7NtTJu18HflHHtu_6Mld9lME37_zqp_QDM3yqsvm3eOl]--></g></svg>